<svg height="512" viewBox="0 0 64 64" width="512" xmlns="http://www.w3.org/2000/svg"><g id="graduate-books-screen-pen-online-education"><path d="m61 36h-58v-30a2 2 0 0 1 2-2h54a2 2 0 0 1 2 2z" fill="#e9e9ea"/><path d="m6 7h52v26h-52z" fill="#2488ff"/><path d="m61 36v2a2.006 2.006 0 0 1 -2 2h-54a2.006 2.006 0 0 1 -2-2v-2z" fill="#acabb1"/><path d="m37 45v8h-28a4 4 0 1 1 0-8z" fill="#91dc5a"/><path d="m42 53v8h-28a4 4 0 1 1 0-8z" fill="#ffda44"/><path d="m59.85 43.15a2 2 0 0 1 0 2.83l-1.51 1.51-2.83-2.83 1.51-1.51a1.992 1.992 0 0 1 2.83 0z" fill="#e9e9ea"/><path d="m46.797 48.269h11.865v4.002h-11.865z" fill="#64c37d" transform="matrix(.707 -.707 .707 .707 -20.102 52.009)"/><path d="m49.95 55.88-.12.12-.59.59-4.24 1.41 1.41-4.24.71-.71z" fill="#3e3d42"/><path d="m17 17-6 4v-8z" fill="#d80027"/><path d="m49 45h-24l1.74-14.78h20.53z" fill="#2d2d30"/><path d="m56 27-19 7-19-7 19-7z" fill="#3e3d42"/><path d="m30 15h-2v1h-7v2h7v1h2v-1h20v-2h-20z" fill="#e9e9ea"/><path d="m28 15h2v4h-2z" fill="#ffda44"/><path d="m53 27v7h-2v-6h-13v-2h14a1 1 0 0 1 1 1z" fill="#2d2d30"/><circle cx="37" cy="27" fill="#787680" r="2"/><path d="m52 32a2 2 0 0 1 2 2v3a0 0 0 0 1 0 0h-4a0 0 0 0 1 0 0v-3a2 2 0 0 1 2-2z" fill="#d80027"/></g></svg>