<svg id="Capa_1" enable-background="new 0 0 512 512" height="512" viewBox="0 0 512 512" width="512" xmlns="http://www.w3.org/2000/svg"><g><g><path d="m501.698 399.547h-491.396c-5.69 0-10.302-4.612-10.302-10.302v-333.218c0-5.69 4.612-10.302 10.302-10.302h491.396c5.69 0 10.302 4.612 10.302 10.302v333.218c0 5.69-4.612 10.302-10.302 10.302z" fill="#c8ea73"/></g><g><path d="m360.669 335.019c-36.443 27.138-74.587 48.673-112.668 64.528h253.696c5.69 0 10.302-4.612 10.302-10.302v-233.556c-29.848 63.855-81.714 127.488-151.33 179.33z" fill="#b7e445"/></g><g><path d="m33.301 355.944v-266.616c0-5.69 4.612-10.302 10.302-10.302h424.795c5.69 0 10.302 4.612 10.302 10.302v266.616c0 5.69-4.612 10.302-10.302 10.302h-424.795c-5.69 0-10.302-4.612-10.302-10.302z" fill="#ecf4ff"/></g><g><path d="m360.669 335.019c-15.31 11.401-30.923 21.806-46.703 31.227h154.431c5.69 0 10.302-4.612 10.302-10.302v-142.299c-29.809 43.565-69.618 85.322-118.03 121.374z" fill="#cbe2ff"/></g><g><path d="m183.154 135.326v-12.697c0-5.69 4.612-10.302 10.302-10.302h125.087c5.69 0 10.302 4.612 10.302 10.302v12.697c0 5.69-4.612 10.302-10.302 10.302h-125.087c-5.689 0-10.302-4.612-10.302-10.302z" fill="#9dc6fb"/></g><g><g><path d="m438.425 465.558-29.699-15.592c-1.799-.944-3.947-.944-5.746 0l-29.699 15.592c-4.116 2.161-9.054-.824-9.054-5.473v-104.245h83.252v104.245c.001 4.649-4.938 7.634-9.054 5.473z" fill="#dd5790"/></g><g><circle cx="405.854" cy="326.701" fill="#f6e266" r="72.846"/></g><g><path d="m444.304 264.836c6.952 11.162 10.98 24.333 10.98 38.45 0 40.232-32.614 72.846-72.846 72.846-14.118 0-27.289-4.028-38.451-10.98 12.859 20.646 35.751 34.395 61.865 34.395 40.231 0 72.846-32.614 72.846-72.846.001-26.114-13.748-49.006-34.394-61.865z" fill="#f1d333"/></g><g><circle cx="405.854" cy="326.701" fill="#e49542" r="39.545"/></g></g><g><path d="m398.569 186.655h-285.138c-4.267 0-7.726-3.459-7.726-7.726s3.459-7.726 7.726-7.726h285.138c4.267 0 7.726 3.459 7.726 7.726s-3.459 7.726-7.726 7.726z" fill="#9dc6fb"/></g><g><path d="m398.569 219.956h-285.138c-4.267 0-7.726-3.459-7.726-7.726s3.459-7.726 7.726-7.726h285.138c4.267 0 7.726 3.459 7.726 7.726s-3.459 7.726-7.726 7.726z" fill="#9dc6fb"/></g><g><path d="m284.098 253.257h-170.667c-4.267 0-7.726-3.459-7.726-7.726s3.459-7.726 7.726-7.726h170.667c4.267 0 7.726 3.459 7.726 7.726s-3.459 7.726-7.726 7.726z" fill="#9dc6fb"/></g><g><path d="m169.626 286.558h-56.195c-4.267 0-7.726-3.459-7.726-7.726s3.459-7.726 7.726-7.726h56.195c4.267 0 7.726 3.459 7.726 7.726s-3.459 7.726-7.726 7.726z" fill="#dd5790"/></g><g><path d="m169.626 319.858h-56.195c-4.267 0-7.726-3.459-7.726-7.726s3.459-7.726 7.726-7.726h56.195c4.267 0 7.726 3.459 7.726 7.726s-3.459 7.726-7.726 7.726z" fill="#dd5790"/></g></g></svg>