<?xml version="1.0" encoding="iso-8859-1"?>
<!-- Generator: Adobe Illustrator 19.0.0, SVG Export Plug-In . SVG Version: 6.00 Build 0)  -->
<svg version="1.1" id="Capa_1" xmlns="http://www.w3.org/2000/svg" xmlns:xlink="http://www.w3.org/1999/xlink" x="0px" y="0px"
	 viewBox="0 0 512 512" style="enable-background:new 0 0 512 512;" xml:space="preserve">
<rect x="10" y="30.03" style="fill:#EDF2FA;" width="492" height="451.94"/>
<g>
	<rect x="272.2" y="309.53" style="fill:#FF5D5D;" width="35.13" height="37.55"/>
	<rect x="415.15" y="309.53" style="fill:#FF5D5D;" width="35.13" height="37.55"/>
</g>
<rect x="10" y="30.03" style="fill:#72D8FF;" width="492" height="72"/>
<path style="fill:#231F20;" d="M21.004,102.031H496"/>
<path style="fill:#FF5D5D;" d="M214.349,148.031H94.631c-16.917,0-30.631,13.714-30.631,30.63V261.4
	c0,16.917,13.714,30.631,30.631,30.631h119.718c16.917,0,30.631-13.714,30.631-30.631v-82.739
	C244.979,161.745,231.265,148.031,214.349,148.031z"/>
<path style="fill:#FFCDAC;" d="M360.106,386.351L360.106,386.351c-29.148,0-52.776-23.629-52.776-52.776v-13.768
	c0-29.147,23.629-52.776,52.776-52.776l0,0c29.147,0,52.776,23.629,52.776,52.776v13.768
	C412.882,362.722,389.253,386.351,360.106,386.351z"/>
<path style="fill:#FFC66C;" d="M388.181,378.149l51.902,17.199c14.404,4.773,24.129,18.24,24.129,33.414v53.205H256v-53.205
	c0-15.175,9.724-28.641,24.129-33.414l51.902-17.199L388.181,378.149L388.181,378.149z"/>
<path style="fill:#FFFFFF;" d="M178.978,228.418l-38.225,24.501c-6.63,4.25-15.338-0.511-15.338-8.387V195.53
	c0-7.876,8.707-12.637,15.338-8.387l38.225,24.501C185.093,215.563,185.093,224.498,178.978,228.418z"/>
<path d="M502,20.031H10c-5.523,0-10,4.478-10,10v451.938c0,5.522,4.477,10,10,10h97c5.523,0,10-4.478,10-10s-4.477-10-10-10H20
	V111.98c0.33,0.033,0.665,0.051,1.004,0.051H492v359.938h-17.788v-43.205c0-19.523-12.451-36.767-30.983-42.906l-35.288-11.694
	c4.307-5.068,7.822-10.824,10.358-17.082h29.715c5.523,0,10-4.478,10-10v-28.205c0-53.986-43.921-97.908-97.908-97.908
	s-97.908,43.922-97.908,97.908v28.205c0,5.522,4.477,10,10,10h29.715c2.537,6.258,6.051,12.014,10.358,17.082l-35.288,11.694
	C258.451,391.997,246,409.24,246,428.763v43.205h-46.513c-5.523,0-10,4.478-10,10s4.477,10,10,10H256h208.212H502
	c5.523,0,10-4.478,10-10V30.031C512,24.508,507.523,20.031,502,20.031z M338.259,370.332c-0.575-0.457-1.197-0.849-1.856-1.17
	c-11.489-7.678-19.073-20.762-19.073-35.587v-13.768c0-23.587,19.189-42.776,42.776-42.776s42.776,19.189,42.776,42.776v13.768
	c0,3.131-0.348,6.181-0.989,9.123h-31.787v-0.334c0-5.522-4.477-10-10-10s-10,4.478-10,10v10.334c0,5.522,4.477,10,10,10h31.292
	c-2.269,2.436-4.814,4.61-7.591,6.465c-0.657,0.32-1.278,0.711-1.852,1.168c-6.4,3.818-13.871,6.02-21.849,6.02
	C352.128,376.351,344.658,374.15,338.259,370.332z M422.779,337.081c0.064-1.161,0.103-2.329,0.103-3.506v-13.768
	c0-0.093-0.007-0.184-0.007-0.276h15.139v17.55L422.779,337.081L422.779,337.081z M360.106,240.967
	c36.283,0,66.85,24.932,75.475,58.563h-16.078c-8.453-24.692-31.877-42.5-59.397-42.5s-50.944,17.808-59.397,42.5h-16.078
	C293.256,265.899,323.823,240.967,360.106,240.967z M282.198,337.081v-17.55h15.139c0,0.093-0.007,0.184-0.007,0.276v13.768
	c0,1.177,0.039,2.345,0.103,3.506L282.198,337.081L282.198,337.081z M266,471.968v-43.205c0-10.885,6.942-20.498,17.274-23.922
	l47.555-15.76c8.748,4.633,18.708,7.269,29.277,7.269s20.529-2.636,29.277-7.269l47.555,15.76
	c10.332,3.424,17.273,13.037,17.273,23.922v43.205L266,471.968L266,471.968z M21.004,92.031c-0.339,0-0.674,0.018-1.004,0.051
	V40.031h472v52H21.004z"/>
<path d="M154.48,471.969c-2.64,0-5.21,1.061-7.07,2.93c-1.87,1.86-2.93,4.44-2.93,7.07s1.06,5.21,2.93,7.07
	c1.86,1.859,4.43,2.93,7.07,2.93c2.63,0,5.21-1.07,7.07-2.93s2.93-4.44,2.93-7.07s-1.07-5.21-2.93-7.07
	C159.69,473.03,157.11,471.969,154.48,471.969z"/>
<path d="M448,56.031H222.065c-5.523,0-10,4.478-10,10s4.477,10,10,10H448c5.523,0,10-4.478,10-10S453.523,56.031,448,56.031z"/>
<path d="M104,56.03c-2.63,0-5.21,1.069-7.07,2.93C95.07,60.819,94,63.399,94,66.03c0,2.63,1.07,5.21,2.93,7.069
	c1.86,1.86,4.44,2.931,7.07,2.931s5.21-1.07,7.07-2.931c1.86-1.859,2.93-4.439,2.93-7.069c0-2.631-1.07-5.211-2.93-7.07
	C109.21,57.099,106.63,56.03,104,56.03z"/>
<path d="M64,56.03c-2.63,0-5.21,1.069-7.07,2.93C55.07,60.819,54,63.399,54,66.03c0,2.63,1.07,5.21,2.93,7.069
	c1.86,1.86,4.44,2.931,7.07,2.931c2.63,0,5.21-1.07,7.07-2.931C72.93,71.24,74,68.66,74,66.03c0-2.631-1.07-5.211-2.93-7.07
	C69.21,57.099,66.63,56.03,64,56.03z"/>
<path d="M144,56.03c-2.63,0-5.21,1.069-7.07,2.93c-1.86,1.859-2.93,4.439-2.93,7.07c0,2.63,1.07,5.21,2.93,7.069
	c1.86,1.86,4.44,2.931,7.07,2.931s5.21-1.07,7.07-2.931c1.86-1.859,2.93-4.439,2.93-7.069c0-2.631-1.07-5.211-2.93-7.07
	C149.21,57.099,146.63,56.03,144,56.03z"/>
<path d="M254.979,261.4v-82.738c0-22.404-18.227-40.631-40.63-40.631H94.63c-22.404,0-40.63,18.227-40.63,40.631V261.4
	c0,22.404,18.227,40.631,40.63,40.631h119.718C236.752,302.031,254.979,283.804,254.979,261.4z M234.979,261.4
	c0,11.376-9.255,20.631-20.63,20.631H94.63c-11.375,0-20.63-9.255-20.63-20.631v-82.738c0-11.376,9.255-20.631,20.63-20.631h119.718
	c11.375,0,20.63,9.255,20.63,20.631V261.4H234.979z"/>
<path d="M184.375,203.225l-38.225-24.501c-6.146-3.939-13.944-4.211-20.35-0.709c-6.406,3.503-10.385,10.214-10.385,17.515v49.002
	c0,7.301,3.979,14.012,10.385,17.515c2.992,1.636,6.288,2.448,9.577,2.448c3.753,0,7.498-1.058,10.773-3.157l38.225-24.501
	c5.754-3.688,9.19-9.971,9.19-16.806S190.128,206.913,184.375,203.225z M135.415,244.458l0.003-48.857l38.112,24.431
	L135.415,244.458z"/>
<path d="M64,398.031h73.494c5.523,0,10-4.478,10-10s-4.477-10-10-10H64c-5.523,0-10,4.478-10,10S58.477,398.031,64,398.031z"/>
<path d="M210.814,378.031H183.11c-5.523,0-10,4.478-10,10s4.477,10,10,10h27.704c5.523,0,10-4.478,10-10
	S216.337,378.031,210.814,378.031z"/>
<path d="M64,350.031h105.387c5.523,0,10-4.478,10-10s-4.477-10-10-10H64c-5.523,0-10,4.478-10,10S58.477,350.031,64,350.031z"/>
<path d="M218.25,332.959c-1.86-1.86-4.44-2.93-7.07-2.93c-2.64,0-5.21,1.069-7.07,2.93c-1.86,1.859-2.93,4.439-2.93,7.07
	c0,2.63,1.07,5.21,2.93,7.069c1.86,1.86,4.43,2.931,7.07,2.931c2.63,0,5.21-1.07,7.07-2.931c1.86-1.859,2.93-4.439,2.93-7.069
	C221.18,337.399,220.11,334.819,218.25,332.959z"/>
<path d="M64,446.031h146.8c5.523,0,10-4.478,10-10s-4.477-10-10-10H64c-5.523,0-10,4.478-10,10S58.477,446.031,64,446.031z"/>
<g>
</g>
<g>
</g>
<g>
</g>
<g>
</g>
<g>
</g>
<g>
</g>
<g>
</g>
<g>
</g>
<g>
</g>
<g>
</g>
<g>
</g>
<g>
</g>
<g>
</g>
<g>
</g>
<g>
</g>
</svg>
