<svg id="Flat" height="512" viewBox="0 0 512 512" width="512" xmlns="http://www.w3.org/2000/svg"><path d="m160 216h192a32 32 0 0 1 32 32v160a0 0 0 0 1 0 0h-256a0 0 0 0 1 0 0v-160a32 32 0 0 1 32-32z" fill="#d13330"/><path d="m128 280h256a32 32 0 0 1 32 32v176a0 0 0 0 1 0 0h-320a0 0 0 0 1 0 0v-176a32 32 0 0 1 32-32z" fill="#2d85cc"/><path d="m416 312v176h-160v-208h128a32 32 0 0 1 32 32z" fill="#1261a0"/><path d="m208 328 48 96 48-96v-48h-96z" fill="#e9eef2"/><circle cx="360" cy="184" fill="#f0c6a4" r="32"/><circle cx="152" cy="184" fill="#f0c6a4" r="32"/><rect fill="#f7cca9" height="240" rx="104" width="208" x="152" y="40"/><g fill="#452d23"><circle cx="296" cy="184" r="8"/><circle cx="216" cy="184" r="8"/><path d="m264 208h-16a8 8 0 0 1 -8-8v-16a8 8 0 0 1 16 0v8h8a8 8 0 0 1 0 16z"/><path d="m256 248c-34.932 0-46.893-27.742-47.385-28.923a8 8 0 0 1 14.749-6.2c.388.888 8.68 19.126 32.636 19.126 24.385 0 32.536-18.886 32.615-19.077a8 8 0 1 1 14.77 6.154c-.492 1.178-12.453 28.92-47.385 28.92z"/></g><path d="m232 376 8-48h32l8 48-24 48z" fill="#d13330"/><path d="m240 280h32v48h-32z" fill="#eb423f"/><path d="m336 280h32v208h-32z" fill="#eb423f"/><path d="m144 280h32v208h-32z" fill="#eb423f"/><path d="m256 280-48 48v-48z" fill="#dadcde"/><path d="m256 280 48 48v-48z" fill="#dadcde"/><path d="m149.856 408h34.144a0 0 0 0 1 0 0v48a0 0 0 0 1 0 0h-34.144a13.856 13.856 0 0 1 -13.856-13.856v-20.288a13.856 13.856 0 0 1 13.856-13.856z" fill="#f7cca9"/><path d="m341.856 408h34.144a0 0 0 0 1 0 0v48a0 0 0 0 1 0 0h-34.144a13.856 13.856 0 0 1 -13.856-13.856v-20.288a13.856 13.856 0 0 1 13.856-13.856z" fill="#f7cca9" transform="matrix(-1 0 0 -1 704 864)"/><path d="m358.771 168s-39.621.75-39.621-37.373c0 0-126.787 29.748-166.408 37.373 0 0-30.962-6.453-23.614-62.262 7.766-58.984 126.629-119.982 197.946-51.359 0 0 44.8 6.371 55.628 58.811 7.886 38.2-22.735 54.81-22.735 54.81z" fill="#95573a"/></svg>