<svg id="Capa_1" enable-background="new 0 0 512 512" height="512" viewBox="0 0 512 512" width="512" xmlns="http://www.w3.org/2000/svg"><g><path d="m386 0h-260c-24.813 0-45 20.187-45 45v197c0 24.813 20.187 45 45 45h260c24.813 0 45-20.187 45-45v-197c0-24.813-20.187-45-45-45z" fill="#6c6c6c"/><path d="m386 0h-130v287h130c24.813 0 45-20.187 45-45v-197c0-24.813-20.187-45-45-45z" fill="#404040"/><path d="m308.344 113.415-56.045-38.769c-7.583-5.244-17.367-5.845-25.536-1.563-8.167 4.282-13.24 12.67-13.24 21.891v77.062c0 9.191 5.05 17.566 13.178 21.857 3.636 1.919 7.597 2.869 11.545 2.868 4.881 0 9.742-1.451 13.938-4.318l56.046-38.294c6.723-4.594 10.749-12.197 10.771-20.339.021-8.14-3.962-15.765-10.657-20.395z" fill="#ffda2d"/><path d="m308.344 113.415-52.344-36.208v112.628l52.229-35.686c6.723-4.594 10.749-12.197 10.771-20.339.022-8.14-3.961-15.765-10.656-20.395z" fill="#fdbf00"/><path d="m453.621 301.688c-10.225-8.182-23.587-12.688-37.621-12.688-30.327 0-55 21.084-55 47v64c0 8.284 6.716 15 15 15h80c8.284 0 15-6.716 15-15v-64c0-12.971-6.335-25.477-17.379-34.312z" fill="#90cc1c"/><path d="m456 415c8.284 0 15-6.716 15-15v-64c0-12.971-6.335-25.477-17.379-34.313-10.225-8.181-23.587-12.687-37.621-12.687v126z" fill="#6b0"/><path d="m293.621 301.688c-10.225-8.182-23.587-12.688-37.621-12.688-30.327 0-55 21.084-55 47v64c0 8.284 6.716 15 15 15h80c8.284 0 15-6.716 15-15v-64c0-12.971-6.335-25.477-17.379-34.312z" fill="#ff712f"/><path d="m296 415c8.284 0 15-6.716 15-15v-64c0-12.971-6.335-25.477-17.379-34.313-10.225-8.181-23.587-12.687-37.621-12.687v126z" fill="#ff4c04"/><path d="m133.621 301.688c-10.225-8.182-23.587-12.688-37.621-12.688-30.327 0-55 21.084-55 47v64c0 8.284 6.716 15 15 15h80c8.284 0 15-6.716 15-15v-64c0-12.971-6.335-25.477-17.379-34.312z" fill="#27d8f6"/><path d="m136 415c8.284 0 15-6.716 15-15v-64c0-12.971-6.335-25.477-17.379-34.313-10.225-8.181-23.587-12.687-37.621-12.687v126z" fill="#3aaaff"/><path d="m466 385h-420c-24.813 0-45 20.187-45 45v37c0 24.813 20.187 45 45 45h420c24.813 0 45-20.187 45-45v-37c0-24.813-20.187-45-45-45z" fill="#ffda2d"/><path d="m466 385h-210v127h210c24.813 0 45-20.187 45-45v-37c0-24.813-20.187-45-45-45z" fill="#fdbf00"/><circle cx="416" cy="272" fill="#fed2a4" r="47"/><path d="m463 272c0-25.916-21.084-47-47-47v94c25.916 0 47-21.084 47-47z" fill="#ffbd86"/><circle cx="256" cy="272" fill="#fed2a4" r="47"/><path d="m303 272c0-25.916-21.084-47-47-47v94c25.916 0 47-21.084 47-47z" fill="#ffbd86"/><circle cx="96" cy="272" fill="#fed2a4" r="47"/><path d="m143 272c0-25.916-21.084-47-47-47v94c25.916 0 47-21.084 47-47z" fill="#ffbd86"/></g></svg>